TITLE ""
FILE "LR_black_phrase_E_A01.mp3" MP3
  TRACK 01 AUDIO
    TITLE "LR_black_phrase_E_A01_001"
    INDEX 01 00:00:00
  TRACK 02 AUDIO
    TITLE "LR_black_phrase_E_A01_002"
    INDEX 01 00:00:08
  TRACK 03 AUDIO
    TITLE "LR_black_phrase_E_A01_003"
    INDEX 01 00:01:23
  TRACK 04 AUDIO
    TITLE "LR_black_phrase_E_A01_004"
    INDEX 01 00:01:55
  TRACK 05 AUDIO
    TITLE "LR_black_phrase_E_A01_005"
    INDEX 01 00:03:54
  TRACK 06 AUDIO
    TITLE "LR_black_phrase_E_A01_006"
    INDEX 01 00:04:37
  TRACK 07 AUDIO
    TITLE "LR_black_phrase_E_A01_007"
    INDEX 01 00:06:34
  TRACK 08 AUDIO
    TITLE "LR_black_phrase_E_A01_008"
    INDEX 01 00:07:32
  TRACK 09 AUDIO
    TITLE "LR_black_phrase_E_A01_009"
    INDEX 01 00:08:67
  TRACK 10 AUDIO
    TITLE "LR_black_phrase_E_A01_010"
    INDEX 01 00:09:21
  TRACK 11 AUDIO
    TITLE "LR_black_phrase_E_A01_011"
    INDEX 01 00:11:53
  TRACK 12 AUDIO
    TITLE "LR_black_phrase_E_A01_012"
    INDEX 01 00:12:33
  TRACK 13 AUDIO
    TITLE "LR_black_phrase_E_A01_013"
    INDEX 01 00:14:65
  TRACK 14 AUDIO
    TITLE "LR_black_phrase_E_A01_014"
    INDEX 01 00:15:69
  TRACK 15 AUDIO
    TITLE "LR_black_phrase_E_A01_015"
    INDEX 01 00:17:30
  TRACK 16 AUDIO
    TITLE "LR_black_phrase_E_A01_016"
    INDEX 01 00:17:58
  TRACK 17 AUDIO
    TITLE "LR_black_phrase_E_A01_017"
    INDEX 01 00:20:44
  TRACK 18 AUDIO
    TITLE "LR_black_phrase_E_A01_018"
    INDEX 01 00:21:26
  TRACK 19 AUDIO
    TITLE "LR_black_phrase_E_A01_019"
    INDEX 01 00:24:13
  TRACK 20 AUDIO
    TITLE "LR_black_phrase_E_A01_020"
    INDEX 01 00:25:20
  TRACK 21 AUDIO
    TITLE "LR_black_phrase_E_A01_021"
    INDEX 01 00:26:41
  TRACK 22 AUDIO
    TITLE "LR_black_phrase_E_A01_022"
    INDEX 01 00:26:70
  TRACK 23 AUDIO
    TITLE "LR_black_phrase_E_A01_023"
    INDEX 01 00:28:60
  TRACK 24 AUDIO
    TITLE "LR_black_phrase_E_A01_024"
    INDEX 01 00:29:37
  TRACK 25 AUDIO
    TITLE "LR_black_phrase_E_A01_025"
    INDEX 01 00:31:27
  TRACK 26 AUDIO
    TITLE "LR_black_phrase_E_A01_026"
    INDEX 01 00:32:30
  TRACK 27 AUDIO
    TITLE "LR_black_phrase_E_A01_027"
    INDEX 01 00:33:47
  TRACK 28 AUDIO
    TITLE "LR_black_phrase_E_A01_028"
    INDEX 01 00:33:72
  TRACK 29 AUDIO
    TITLE "LR_black_phrase_E_A01_029"
    INDEX 01 00:36:14
  TRACK 30 AUDIO
    TITLE "LR_black_phrase_E_A01_030"
    INDEX 01 00:36:65
  TRACK 31 AUDIO
    TITLE "LR_black_phrase_E_A01_031"
    INDEX 01 00:39:06
  TRACK 32 AUDIO
    TITLE "LR_black_phrase_E_A01_032"
    INDEX 01 00:40:16
  TRACK 33 AUDIO
    TITLE "LR_black_phrase_E_A01_033"
    INDEX 01 00:41:37
  TRACK 34 AUDIO
    TITLE "LR_black_phrase_E_A01_034"
    INDEX 01 00:41:64
  TRACK 35 AUDIO
    TITLE "LR_black_phrase_E_A01_035"
    INDEX 01 00:44:21
  TRACK 36 AUDIO
    TITLE "LR_black_phrase_E_A01_036"
    INDEX 01 00:44:74
  TRACK 37 AUDIO
    TITLE "LR_black_phrase_E_A01_037"
    INDEX 01 00:47:31
  TRACK 38 AUDIO
    TITLE "LR_black_phrase_E_A01_038"
    INDEX 01 00:48:35
  TRACK 39 AUDIO
    TITLE "LR_black_phrase_E_A01_039"
    INDEX 01 00:49:40
  TRACK 40 AUDIO
    TITLE "LR_black_phrase_E_A01_040"
    INDEX 01 00:49:70
  TRACK 41 AUDIO
    TITLE "LR_black_phrase_E_A01_041"
    INDEX 01 00:52:17
  TRACK 42 AUDIO
    TITLE "LR_black_phrase_E_A01_042"
    INDEX 01 00:52:72
  TRACK 43 AUDIO
    TITLE "LR_black_phrase_E_A01_043"
    INDEX 01 00:55:19
  TRACK 44 AUDIO
    TITLE "LR_black_phrase_E_A01_044"
    INDEX 01 00:56:26
  TRACK 45 AUDIO
    TITLE "LR_black_phrase_E_A01_045"
    INDEX 01 00:57:36
  TRACK 46 AUDIO
    TITLE "LR_black_phrase_E_A01_046"
    INDEX 01 00:57:65
  TRACK 47 AUDIO
    TITLE "LR_black_phrase_E_A01_047"
    INDEX 01 01:00:32
  TRACK 48 AUDIO
    TITLE "LR_black_phrase_E_A01_048"
    INDEX 01 01:01:14
  TRACK 49 AUDIO
    TITLE "LR_black_phrase_E_A01_049"
    INDEX 01 01:03:56
  TRACK 50 AUDIO
    TITLE "LR_black_phrase_E_A01_050"
    INDEX 01 01:04:59
  TRACK 51 AUDIO
    TITLE "LR_black_phrase_E_A01_051"
    INDEX 01 01:05:70
  TRACK 52 AUDIO
    TITLE "LR_black_phrase_E_A01_052"
    INDEX 01 01:06:23
  TRACK 53 AUDIO
    TITLE "LR_black_phrase_E_A01_053"
    INDEX 01 01:09:23
  TRACK 54 AUDIO
    TITLE "LR_black_phrase_E_A01_054"
    INDEX 01 01:10:03
  TRACK 55 AUDIO
    TITLE "LR_black_phrase_E_A01_055"
    INDEX 01 01:13:03
  TRACK 56 AUDIO
    TITLE "LR_black_phrase_E_A01_056"
    INDEX 01 01:14:07
  TRACK 57 AUDIO
    TITLE "LR_black_phrase_E_A01_057"
    INDEX 01 01:15:28
  TRACK 58 AUDIO
    TITLE "LR_black_phrase_E_A01_058"
    INDEX 01 01:15:47
  TRACK 59 AUDIO
    TITLE "LR_black_phrase_E_A01_059"
    INDEX 01 01:17:40
  TRACK 60 AUDIO
    TITLE "LR_black_phrase_E_A01_060"
    INDEX 01 01:18:16
  TRACK 61 AUDIO
    TITLE "LR_black_phrase_E_A01_061"
    INDEX 01 01:20:09
  TRACK 62 AUDIO
    TITLE "LR_black_phrase_E_A01_062"
    INDEX 01 01:21:21
  TRACK 63 AUDIO
    TITLE "LR_black_phrase_E_A01_063"
    INDEX 01 01:22:42
  TRACK 64 AUDIO
    TITLE "LR_black_phrase_E_A01_064"
    INDEX 01 01:22:73
  TRACK 65 AUDIO
    TITLE "LR_black_phrase_E_A01_065"
    INDEX 01 01:25:12
  TRACK 66 AUDIO
    TITLE "LR_black_phrase_E_A01_066"
    INDEX 01 01:25:67
  TRACK 67 AUDIO
    TITLE "LR_black_phrase_E_A01_067"
    INDEX 01 01:28:07
  TRACK 68 AUDIO
    TITLE "LR_black_phrase_E_A01_068"
    INDEX 01 01:29:12
  TRACK 69 AUDIO
    TITLE "LR_black_phrase_E_A01_069"
    INDEX 01 01:30:43
  TRACK 70 AUDIO
    TITLE "LR_black_phrase_E_A01_070"
    INDEX 01 01:30:72
  TRACK 71 AUDIO
    TITLE "LR_black_phrase_E_A01_071"
    INDEX 01 01:33:65
  TRACK 72 AUDIO
    TITLE "LR_black_phrase_E_A01_072"
    INDEX 01 01:34:43
  TRACK 73 AUDIO
    TITLE "LR_black_phrase_E_A01_073"
    INDEX 01 01:37:35
  TRACK 74 AUDIO
    TITLE "LR_black_phrase_E_A01_074"
    INDEX 01 01:38:37
  TRACK 75 AUDIO
    TITLE "LR_black_phrase_E_A01_075"
    INDEX 01 01:39:64
  TRACK 76 AUDIO
    TITLE "LR_black_phrase_E_A01_076"
    INDEX 01 01:40:08
  TRACK 77 AUDIO
    TITLE "LR_black_phrase_E_A01_077"
    INDEX 01 01:42:15
  TRACK 78 AUDIO
    TITLE "LR_black_phrase_E_A01_078"
    INDEX 01 01:42:64
  TRACK 79 AUDIO
    TITLE "LR_black_phrase_E_A01_079"
    INDEX 01 01:44:69
  TRACK 80 AUDIO
    TITLE "LR_black_phrase_E_A01_080"
    INDEX 01 01:46:01
  TRACK 81 AUDIO
    TITLE "LR_black_phrase_E_A01_081"
    INDEX 01 01:47:28
  TRACK 82 AUDIO
    TITLE "LR_black_phrase_E_A01_082"
    INDEX 01 01:47:49
  TRACK 83 AUDIO
    TITLE "LR_black_phrase_E_A01_083"
    INDEX 01 01:49:74
  TRACK 84 AUDIO
    TITLE "LR_black_phrase_E_A01_084"
    INDEX 01 01:50:48
  TRACK 85 AUDIO
    TITLE "LR_black_phrase_E_A01_085"
    INDEX 01 01:52:74
  TRACK 86 AUDIO
    TITLE "LR_black_phrase_E_A01_086"
    INDEX 01 01:54:06
  TRACK 87 AUDIO
    TITLE "LR_black_phrase_E_A01_087"
    INDEX 01 01:55:19
  TRACK 88 AUDIO
    TITLE "LR_black_phrase_E_A01_088"
    INDEX 01 01:55:51
  TRACK 89 AUDIO
    TITLE "LR_black_phrase_E_A01_089"
    INDEX 01 01:57:58
  TRACK 90 AUDIO
    TITLE "LR_black_phrase_E_A01_090"
    INDEX 01 01:58:37
  TRACK 91 AUDIO
    TITLE "LR_black_phrase_E_A01_091"
    INDEX 01 02:00:44
  TRACK 92 AUDIO
    TITLE "LR_black_phrase_E_A01_092"
    INDEX 01 02:01:49
  TRACK 93 AUDIO
    TITLE "LR_black_phrase_E_A01_093"
    INDEX 01 02:02:70
  TRACK 94 AUDIO
    TITLE "LR_black_phrase_E_A01_094"
    INDEX 01 02:03:23
  TRACK 95 AUDIO
    TITLE "LR_black_phrase_E_A01_095"
    INDEX 01 02:06:06
  TRACK 96 AUDIO
    TITLE "LR_black_phrase_E_A01_096"
    INDEX 01 02:06:62
  TRACK 97 AUDIO
    TITLE "LR_black_phrase_E_A01_097"
    INDEX 01 02:09:45
  TRACK 98 AUDIO
    TITLE "LR_black_phrase_E_A01_098"
    INDEX 01 02:10:52
  TRACK 99 AUDIO
    TITLE "LR_black_phrase_E_A01_099"
    INDEX 01 02:11:75
  TRACK 100 AUDIO
    TITLE "LR_black_phrase_E_A01_100"
    INDEX 01 02:12:22
  TRACK 101 AUDIO
    TITLE "LR_black_phrase_E_A01_101"
    INDEX 01 02:14:11
  TRACK 102 AUDIO
    TITLE "LR_black_phrase_E_A01_102"
    INDEX 01 02:14:56
  TRACK 103 AUDIO
    TITLE "LR_black_phrase_E_A01_103"
    INDEX 01 02:16:49
  TRACK 104 AUDIO
    TITLE "LR_black_phrase_E_A01_104"
    INDEX 01 02:17:52
  TRACK 105 AUDIO
    TITLE "LR_black_phrase_E_A01_105"
    INDEX 01 02:19:12
  TRACK 106 AUDIO
    TITLE "LR_black_phrase_E_A01_106"
    INDEX 01 02:19:36
  TRACK 107 AUDIO
    TITLE "LR_black_phrase_E_A01_107"
    INDEX 01 02:21:48
  TRACK 108 AUDIO
    TITLE "LR_black_phrase_E_A01_108"
    INDEX 01 02:22:24
  TRACK 109 AUDIO
    TITLE "LR_black_phrase_E_A01_109"
    INDEX 01 02:24:37
  TRACK 110 AUDIO
    TITLE "LR_black_phrase_E_A01_110"
    INDEX 01 02:25:44
  TRACK 111 AUDIO
    TITLE "LR_black_phrase_E_A01_111"
    INDEX 01 02:26:65
  TRACK 112 AUDIO
    TITLE "LR_black_phrase_E_A01_112"
    INDEX 01 02:27:19
  TRACK 113 AUDIO
    TITLE "LR_black_phrase_E_A01_113"
    INDEX 01 02:29:18
  TRACK 114 AUDIO
    TITLE "LR_black_phrase_E_A01_114"
    INDEX 01 02:29:73
  TRACK 115 AUDIO
    TITLE "LR_black_phrase_E_A01_115"
    INDEX 01 02:31:70
  TRACK 116 AUDIO
    TITLE "LR_black_phrase_E_A01_116"
    INDEX 01 02:32:75
  TRACK 117 AUDIO
    TITLE "LR_black_phrase_E_A01_117"
    INDEX 01 02:34:16
  TRACK 118 AUDIO
    TITLE "LR_black_phrase_E_A01_118"
    INDEX 01 02:34:43
  TRACK 119 AUDIO
    TITLE "LR_black_phrase_E_A01_119"
    INDEX 01 02:36:54
  TRACK 120 AUDIO
    TITLE "LR_black_phrase_E_A01_120"
    INDEX 01 02:37:33
  TRACK 121 AUDIO
    TITLE "LR_black_phrase_E_A01_121"
    INDEX 01 02:39:44
  TRACK 122 AUDIO
    TITLE "LR_black_phrase_E_A01_122"
    INDEX 01 02:40:49
  TRACK 123 AUDIO
    TITLE "LR_black_phrase_E_A01_123"
    INDEX 01 02:42:09
  TRACK 124 AUDIO
    TITLE "LR_black_phrase_E_A01_124"
    INDEX 01 02:42:39
  TRACK 125 AUDIO
    TITLE "LR_black_phrase_E_A01_125"
    INDEX 01 02:44:45
  TRACK 126 AUDIO
    TITLE "LR_black_phrase_E_A01_126"
    INDEX 01 02:45:25
  TRACK 127 AUDIO
    TITLE "LR_black_phrase_E_A01_127"
    INDEX 01 02:47:32
  TRACK 128 AUDIO
    TITLE "LR_black_phrase_E_A01_128"
    INDEX 01 02:48:37
  TRACK 129 AUDIO
    TITLE "LR_black_phrase_E_A01_129"
    INDEX 01 02:50:03
  TRACK 130 AUDIO
    TITLE "LR_black_phrase_E_A01_130"
    INDEX 01 02:50:34
  TRACK 131 AUDIO
    TITLE "LR_black_phrase_E_A01_131"
    INDEX 01 02:53:50
  TRACK 132 AUDIO
    TITLE "LR_black_phrase_E_A01_132"
    INDEX 01 02:54:32
  TRACK 133 AUDIO
    TITLE "LR_black_phrase_E_A01_133"
    INDEX 01 02:57:48
  TRACK 134 AUDIO
    TITLE "LR_black_phrase_E_A01_134"
    INDEX 01 02:58:53
  TRACK 135 AUDIO
    TITLE "LR_black_phrase_E_A01_135"
    INDEX 01 02:59:61
  TRACK 136 AUDIO
    TITLE "LR_black_phrase_E_A01_136"
    INDEX 01 03:00:05
  TRACK 137 AUDIO
    TITLE "LR_black_phrase_E_A01_137"
    INDEX 01 03:02:16
  TRACK 138 AUDIO
    TITLE "LR_black_phrase_E_A01_138"
    INDEX 01 03:02:63
  TRACK 139 AUDIO
    TITLE "LR_black_phrase_E_A01_139"
    INDEX 01 03:04:73
  TRACK 140 AUDIO
    TITLE "LR_black_phrase_E_A01_140"
    INDEX 01 03:05:75
  TRACK 141 AUDIO
    TITLE "LR_black_phrase_E_A01_141"
    INDEX 01 03:07:31
  TRACK 142 AUDIO
    TITLE "LR_black_phrase_E_A01_142"
    INDEX 01 03:07:60
  TRACK 143 AUDIO
    TITLE "LR_black_phrase_E_A01_143"
    INDEX 01 03:09:53
  TRACK 144 AUDIO
    TITLE "LR_black_phrase_E_A01_144"
    INDEX 01 03:10:45
  TRACK 145 AUDIO
    TITLE "LR_black_phrase_E_A01_145"
    INDEX 01 03:12:48
  TRACK 146 AUDIO
    TITLE "LR_black_phrase_E_A01_146"
    INDEX 01 03:13:55
  TRACK 147 AUDIO
    TITLE "LR_black_phrase_E_A01_147"
    INDEX 01 03:15:16
  TRACK 148 AUDIO
    TITLE "LR_black_phrase_E_A01_148"
    INDEX 01 03:15:48
  TRACK 149 AUDIO
    TITLE "LR_black_phrase_E_A01_149"
    INDEX 01 03:17:74
  TRACK 150 AUDIO
    TITLE "LR_black_phrase_E_A01_150"
    INDEX 01 03:18:52
  TRACK 151 AUDIO
    TITLE "LR_black_phrase_E_A01_151"
    INDEX 01 03:21:03
  TRACK 152 AUDIO
    TITLE "LR_black_phrase_E_A01_152"
    INDEX 01 03:22:07
  TRACK 153 AUDIO
    TITLE "LR_black_phrase_E_A01_153"
    INDEX 01 03:23:36
  TRACK 154 AUDIO
    TITLE "LR_black_phrase_E_A01_154"
    INDEX 01 03:23:69
  TRACK 155 AUDIO
    TITLE "LR_black_phrase_E_A01_155"
    INDEX 01 03:25:52
  TRACK 156 AUDIO
    TITLE "LR_black_phrase_E_A01_156"
    INDEX 01 03:26:34
  TRACK 157 AUDIO
    TITLE "LR_black_phrase_E_A01_157"
    INDEX 01 03:28:17
  TRACK 158 AUDIO
    TITLE "LR_black_phrase_E_A01_158"
    INDEX 01 03:29:22
  TRACK 159 AUDIO
    TITLE "LR_black_phrase_E_A01_159"
    INDEX 01 03:30:49
  TRACK 160 AUDIO
    TITLE "LR_black_phrase_E_A01_160"
    INDEX 01 03:31:02
  TRACK 161 AUDIO
    TITLE "LR_black_phrase_E_A01_161"
    INDEX 01 03:34:14
  TRACK 162 AUDIO
    TITLE "LR_black_phrase_E_A01_162"
    INDEX 01 03:34:67
  TRACK 163 AUDIO
    TITLE "LR_black_phrase_E_A01_163"
    INDEX 01 03:38:04
  TRACK 164 AUDIO
    TITLE "LR_black_phrase_E_A01_164"
    INDEX 01 03:39:11
  TRACK 165 AUDIO
    TITLE "LR_black_phrase_E_A01_165"
    INDEX 01 03:40:26
  TRACK 166 AUDIO
    TITLE "LR_black_phrase_E_A01_166"
    INDEX 01 03:40:60
  TRACK 167 AUDIO
    TITLE "LR_black_phrase_E_A01_167"
    INDEX 01 03:42:64
  TRACK 168 AUDIO
    TITLE "LR_black_phrase_E_A01_168"
    INDEX 01 03:43:42
  TRACK 169 AUDIO
    TITLE "LR_black_phrase_E_A01_169"
    INDEX 01 03:45:49
  TRACK 170 AUDIO
    TITLE "LR_black_phrase_E_A01_170"
    INDEX 01 03:46:52
  TRACK 171 AUDIO
    TITLE "LR_black_phrase_E_A01_171"
    INDEX 01 03:47:71
  TRACK 172 AUDIO
    TITLE "LR_black_phrase_E_A01_172"
    INDEX 01 03:48:26
  TRACK 173 AUDIO
    TITLE "LR_black_phrase_E_A01_173"
    INDEX 01 03:50:36
  TRACK 174 AUDIO
    TITLE "LR_black_phrase_E_A01_174"
    INDEX 01 03:51:16
  TRACK 175 AUDIO
    TITLE "LR_black_phrase_E_A01_175"
    INDEX 01 03:53:27
  TRACK 176 AUDIO
    TITLE "LR_black_phrase_E_A01_176"
    INDEX 01 03:54:26
  TRACK 177 AUDIO
    TITLE "LR_black_phrase_E_A01_177"
    INDEX 01 03:55:45
  TRACK 178 AUDIO
    TITLE "LR_black_phrase_E_A01_178"
    INDEX 01 03:55:69
  TRACK 179 AUDIO
    TITLE "LR_black_phrase_E_A01_179"
    INDEX 01 03:58:14
  TRACK 180 AUDIO
    TITLE "LR_black_phrase_E_A01_180"
    INDEX 01 03:58:67
  TRACK 181 AUDIO
    TITLE "LR_black_phrase_E_A01_181"
    INDEX 01 04:01:13
